<svg width="238" height="97" viewBox="0 0 238 97" fill="none" xmlns="http://www.w3.org/2000/svg">
<path d="M237.721 80.3286C237.721 83.4713 236.789 86.5433 235.043 89.1563C233.297 91.7694 230.816 93.806 227.912 95.0086C225.009 96.2113 221.814 96.5259 218.732 95.9128C215.649 95.2997 212.818 93.7864 210.596 91.5642C208.374 89.342 206.86 86.5108 206.247 83.4285C205.634 80.3462 205.949 77.1514 207.151 74.248C208.354 71.3445 210.391 68.8629 213.004 67.117C215.617 65.371 218.689 64.4391 221.831 64.4391C226.046 64.4391 230.087 66.1132 233.067 69.093C236.047 72.0729 237.721 76.1144 237.721 80.3286Z" fill="white"/>
<path d="M190.169 86.3811C197.862 80.368 203.174 71.822 205.161 62.2619C207.147 52.7017 205.68 42.7469 201.019 34.1667C196.358 25.5865 188.806 18.9367 179.705 15.3993C170.604 11.862 160.544 11.6661 151.312 14.8466C142.08 18.0271 134.275 24.3779 129.284 32.7702C124.293 41.1626 122.439 51.0528 124.052 60.6829C125.665 70.3131 130.64 79.0595 138.094 85.3674C145.547 91.6753 154.996 95.1361 164.76 95.1348C173.97 95.1402 182.916 92.0581 190.169 86.3811" fill="white"/>
<path d="M82.4377 51.0487V0C77.0235 0.00140415 71.7 1.39112 66.976 4.03639C62.2519 6.68166 58.2851 10.4941 55.4544 15.1095C47.21 12.0919 38.2181 11.7821 29.7855 14.225C21.353 16.668 13.9192 21.7365 8.56461 28.6939C3.21002 35.6512 0.213662 44.1349 0.0110023 52.9118C-0.191657 61.6888 2.40994 70.3017 7.4377 77.4988C12.4655 84.6959 19.6574 90.102 27.9682 92.9316C36.279 95.7612 45.2757 95.8667 53.6506 93.2329C62.0255 90.599 69.3422 85.363 74.5374 78.2859C79.7326 71.2087 82.5356 62.6592 82.5388 53.8799C82.5388 52.9121 82.4955 51.9732 82.4377 51.0487Z" fill="white"/>
<path d="M102.733 31.7933C98.5635 31.7971 94.5661 33.4562 91.6191 36.4058C88.6722 39.3555 87.0168 43.3544 87.0168 47.524V95.1925C95.4159 95.1887 103.47 91.8495 109.407 85.9092C115.345 79.9688 118.68 71.9136 118.68 63.5146V47.7406C118.688 45.6443 118.281 43.5671 117.482 41.6288C116.683 39.6906 115.509 37.9295 114.027 36.4472C112.544 34.9648 110.783 33.7904 108.845 32.9917C106.907 32.193 104.829 31.7857 102.733 31.7933V31.7933Z" fill="white"/>
<path d="M102.849 31.6635C111.592 31.6635 118.68 24.5754 118.68 15.8318C118.68 7.08814 111.592 0 102.849 0C94.105 0 87.0168 7.08814 87.0168 15.8318C87.0168 24.5754 94.105 31.6635 102.849 31.6635Z" fill="white"/>
</svg>
